<svg width="20" height="24" viewBox="0 0 20 24" fill="none" xmlns="http://www.w3.org/2000/svg">
<path d="M9.146 0H13.07V18.166C11.057 18.548 9.579 18.701 7.974 18.701C3.183 18.701 0.686 16.535 0.686 12.381C0.686 8.379 3.336 5.781 7.439 5.781C8.076 5.781 8.56 5.831 9.146 5.984V0ZM9.146 9.143C8.71945 8.99891 8.27114 8.92989 7.821 8.939C5.833 8.939 4.687 10.162 4.687 12.304C4.687 14.394 5.783 15.54 7.796 15.54C8.229 15.54 8.586 15.515 9.146 15.438V9.143ZM19.314 6.06V15.158C19.314 18.292 19.085 19.796 18.397 21.095C17.76 22.344 16.919 23.134 15.186 24L11.542 22.267C13.275 21.452 14.116 20.737 14.651 19.642C15.212 18.521 15.39 17.221 15.39 13.807V6.059L19.314 6.06ZM15.39 0.021H19.314V4.047H15.39V0.021Z" fill="#092E20"/>
</svg>
