<svg width="24" height="24" viewBox="0 0 24 24" fill="none" xmlns="http://www.w3.org/2000/svg">
<path d="M12 0C5.377 0 0 5.377 0 12C0 18.623 5.377 24 12 24C18.623 24 24 18.623 24 12C24 5.377 18.623 0 12 0ZM12 0.75C14.871 0.75 17.482 1.832 19.469 3.6H4.53C6.58442 1.76309 9.24412 0.748344 12 0.75ZM4.814 4.35H19.186L12 18.723L4.814 4.35ZM3.6 4.53V19.47C1.76309 17.4156 0.748344 14.7559 0.75 12C0.75 9.13 1.832 6.519 3.6 4.532V4.53ZM20.4 4.53C22.2369 6.58442 23.2517 9.24412 23.25 12C23.25 14.871 22.168 17.482 20.4 19.469V4.53ZM4.35 5.1L11.625 19.65H4.35V5.1ZM19.65 5.1V19.65H12.375L19.65 5.1ZM4.533 20.4H19.469C17.4148 22.2367 14.7555 23.2514 12 23.25C9.24481 23.2512 6.58691 22.2365 4.533 20.4Z" fill="#757575"/>
</svg>
