<svg width="48" height="48" viewBox="0 0 48 48" fill="none" xmlns="http://www.w3.org/2000/svg">
<rect width="48" height="48" fill="#D9D9D9"/>
<path d="M20.3 11.84C22.6867 11.84 24.46 12.44 25.62 13.64C26.78 14.8267 27.36 16.5333 27.36 18.76C27.36 20.2133 27.0733 21.4867 26.5 22.58C25.94 23.66 25.12 24.5 24.04 25.1C22.96 25.7 21.6533 26 20.12 26C19.92 26 19.6533 25.9933 19.32 25.98C18.9867 25.9667 18.64 25.96 18.28 25.96C17.9333 25.9467 17.6133 25.94 17.32 25.94C16.8533 25.94 16.3933 25.9467 15.94 25.96C15.4867 25.96 15.12 25.9733 14.84 26V25.6C15.2933 25.5733 15.6333 25.52 15.86 25.44C16.1 25.36 16.26 25.2 16.34 24.96C16.42 24.72 16.46 24.36 16.46 23.88V13.96C16.46 13.4667 16.42 13.1067 16.34 12.88C16.26 12.64 16.1 12.48 15.86 12.4C15.6333 12.3067 15.2933 12.2533 14.84 12.24V11.84C15.12 11.8533 15.4867 11.8733 15.94 11.9C16.3933 11.9133 16.84 11.9133 17.28 11.9C17.7467 11.8867 18.2733 11.8733 18.86 11.86C19.4467 11.8467 19.9267 11.84 20.3 11.84ZM19.8 12.2C19.1867 12.2 18.7867 12.3133 18.6 12.54C18.4133 12.7667 18.32 13.2267 18.32 13.92V23.92C18.32 24.6133 18.4133 25.0733 18.6 25.3C18.8 25.5267 19.2067 25.64 19.82 25.64C21.2733 25.64 22.4 25.38 23.2 24.86C24 24.3267 24.56 23.5533 24.88 22.54C25.2 21.5267 25.36 20.2933 25.36 18.84C25.36 17.3467 25.18 16.1133 24.82 15.14C24.4733 14.1533 23.8933 13.42 23.08 12.94C22.28 12.4467 21.1867 12.2 19.8 12.2Z" fill="black"/>
<path d="M28.46 24.74L33.34 37.32C33.54 37.8267 33.7667 38.1667 34.02 38.34C34.2733 38.5 34.5067 38.5867 34.72 38.6V39C34.4533 38.9733 34.1267 38.96 33.74 38.96C33.3533 38.9467 32.9667 38.94 32.58 38.94C32.06 38.94 31.5733 38.9467 31.12 38.96C30.6667 38.96 30.3 38.9733 30.02 39V38.6C30.7 38.5733 31.1333 38.46 31.32 38.26C31.5067 38.0467 31.4667 37.6 31.2 36.92L27.48 26.98L27.8 26.72L24.32 35.76C24.1067 36.2933 23.98 36.7467 23.94 37.12C23.9 37.48 23.9333 37.7667 24.04 37.98C24.16 38.1933 24.3533 38.3467 24.62 38.44C24.9 38.5333 25.2467 38.5867 25.66 38.6V39C25.2867 38.9733 24.8933 38.96 24.48 38.96C24.08 38.9467 23.7067 38.94 23.36 38.94C23.0267 38.94 22.74 38.9467 22.5 38.96C22.2733 38.96 22.06 38.9733 21.86 39V38.6C22.1267 38.5333 22.4 38.38 22.68 38.14C22.96 37.8867 23.2133 37.46 23.44 36.86L28.14 24.74C28.1933 24.74 28.2467 24.74 28.3 24.74C28.3533 24.74 28.4067 24.74 28.46 24.74ZM30.9 33.24V33.64H24.94L25.14 33.24H30.9Z" fill="#5C6BC0"/>
</svg>
