<svg width="144" height="144" viewBox="0 0 144 144" fill="none" xmlns="http://www.w3.org/2000/svg">
<rect width="144" height="144" fill="#D9D9D9"/>
<path d="M84.442 71.498L97.618 105.464C98.158 106.832 98.77 107.75 99.454 108.218C100.138 108.65 100.768 108.884 101.344 108.92V110C100.624 109.928 99.742 109.892 98.698 109.892C97.654 109.856 96.61 109.838 95.566 109.838C94.162 109.838 92.848 109.856 91.624 109.892C90.4 109.892 89.41 109.928 88.654 110V108.92C90.49 108.848 91.66 108.542 92.164 108.002C92.668 107.426 92.56 106.22 91.84 104.384L81.796 77.546L82.66 76.844L73.264 101.252C72.688 102.692 72.346 103.916 72.238 104.924C72.13 105.896 72.22 106.67 72.508 107.246C72.832 107.822 73.354 108.236 74.074 108.488C74.83 108.74 75.766 108.884 76.882 108.92V110C75.874 109.928 74.812 109.892 73.696 109.892C72.616 109.856 71.608 109.838 70.672 109.838C69.772 109.838 68.998 109.856 68.35 109.892C67.738 109.892 67.162 109.928 66.622 110V108.92C67.342 108.74 68.08 108.326 68.836 107.678C69.592 106.994 70.276 105.842 70.888 104.222L83.578 71.498C83.722 71.498 83.866 71.498 84.01 71.498C84.154 71.498 84.298 71.498 84.442 71.498ZM91.03 94.448V95.528H74.938L75.478 94.448H91.03Z" fill="#5C6BC0"/>
<path d="M59.01 39.768C65.454 39.768 70.242 41.388 73.374 44.628C76.506 47.832 78.072 52.44 78.072 58.452C78.072 62.376 77.298 65.814 75.75 68.766C74.238 71.682 72.024 73.95 69.108 75.57C66.192 77.19 62.664 78 58.524 78C57.984 78 57.264 77.982 56.364 77.946C55.464 77.91 54.528 77.892 53.556 77.892C52.62 77.856 51.756 77.838 50.964 77.838C49.704 77.838 48.462 77.856 47.238 77.892C46.014 77.892 45.024 77.928 44.268 78V76.92C45.492 76.848 46.41 76.704 47.022 76.488C47.67 76.272 48.102 75.84 48.318 75.192C48.534 74.544 48.642 73.572 48.642 72.276V45.492C48.642 44.16 48.534 43.188 48.318 42.576C48.102 41.928 47.67 41.496 47.022 41.28C46.41 41.028 45.492 40.884 44.268 40.848V39.768C45.024 39.804 46.014 39.858 47.238 39.93C48.462 39.966 49.668 39.966 50.856 39.93C52.116 39.894 53.538 39.858 55.122 39.822C56.706 39.786 58.002 39.768 59.01 39.768ZM57.66 40.74C56.004 40.74 54.924 41.046 54.42 41.658C53.916 42.27 53.664 43.512 53.664 45.384V72.384C53.664 74.256 53.916 75.498 54.42 76.11C54.96 76.722 56.058 77.028 57.714 77.028C61.638 77.028 64.68 76.326 66.84 74.922C69 73.482 70.512 71.394 71.376 68.658C72.24 65.922 72.672 62.592 72.672 58.668C72.672 54.636 72.186 51.306 71.214 48.678C70.278 46.014 68.712 44.034 66.516 42.738C64.356 41.406 61.404 40.74 57.66 40.74Z" fill="black"/>
</svg>
